HIERARCHY
ROOT Hips
{
    OFFSET 8.194452285766602 85.02826690673828 -16.989479064941406
    CHANNELS 6 Xposition Yposition Zposition Zrotation Xrotation Yrotation
    JOINT RightUpLeg
    {
        OFFSET -8.194452285766602 0.0 0.0
        CHANNELS 3 Zrotation Xrotation Yrotation
        JOINT RightLeg
        {
            OFFSET 0.0 -42.55457305908203 0.0
            CHANNELS 3 Zrotation Xrotation Yrotation
            JOINT RightFoot
            {
                OFFSET 0.0 -42.47369384765625 0.0
                CHANNELS 3 Zrotation Xrotation Yrotation
                End Site
                {
                    OFFSET 0.0 0.0 16.989479064941406
                }
            }
        }
    }
    JOINT LeftUpLeg
    {
        OFFSET 8.194452285766602 0.0 0.0
        CHANNELS 3 Zrotation Xrotation Yrotation
        JOINT LeftLeg
        {
            OFFSET 0.0 -42.55457305908203 0.0
            CHANNELS 3 Zrotation Xrotation Yrotation
            JOINT LeftFoot
            {
                OFFSET 0.0 -42.47369384765625 0.0
                CHANNELS 3 Zrotation Xrotation Yrotation
                End Site
                {
                    OFFSET 0.0 0.0 16.989479064941406
                }
            }
        }
    }
    JOINT Spine
    {
        OFFSET 0.0 21.670928955078125 0.0
        CHANNELS 3 Zrotation Xrotation Yrotation
        JOINT Spine3
        {
            OFFSET 0.0 20.542078018188477 0.0
            CHANNELS 3 Zrotation Xrotation Yrotation
            JOINT Neck
            {
                OFFSET 0.0 8.485236167907715 0.0
                CHANNELS 3 Zrotation Xrotation Yrotation
                End Site
                {
                    OFFSET 0.0 3.394094705581665 0.0
                }
            }
            JOINT LeftArm
            {
                OFFSET 9.888869285583496 0.0 0.0
                CHANNELS 3 Zrotation Xrotation Yrotation
                JOINT LeftForeArm
                {
                    OFFSET 24.958553314208984 0.0 0.0
                    CHANNELS 3 Zrotation Xrotation Yrotation
                    JOINT LeftHand
                    {
                        OFFSET 19.092464447021484 0.0 0.0
                        CHANNELS 3 Zrotation Xrotation Yrotation
                        End Site
                        {
                            OFFSET 7.636984825134277 0.0 0.0
                        }
                    }
                }
            }
            JOINT RightArm
            {
                OFFSET -9.888869285583496 0.0 0.0
                CHANNELS 3 Zrotation Xrotation Yrotation
                JOINT RightForeArm
                {
                    OFFSET -24.958553314208984 0.0 0.0
                    CHANNELS 3 Zrotation Xrotation Yrotation
                    JOINT RightHand
                    {
                        OFFSET -19.092464447021484 0.0 0.0
                        CHANNELS 3 Zrotation Xrotation Yrotation
                        End Site
                        {
                            OFFSET -7.636984825134277 0.0 0.0
                        }
                    }
                }
            }
        }
    }
}
MOTION
Frames: 7
Frame Time: 0.03333333333333333
0.000560849963221699 86.07162475585938 -0.0012041149893775582 10.425533610232959 0.12108777548739842 58.828158532235406 12.703945567341771 15.605743118897685 -4.190989400235104 -5.254864079077782 10.151088638806751 -1.6699515176121127 -1.5776266651233965e-32 1.987846675914698e-16 9.094398542309743e-15 8.148574195637545 -3.8351258429671007 0.7293072567027521 1.913631801178311 12.497194742183678 -2.770163119179458 -1.7241821476758433e-32 7.951386703658791e-16 2.484808344893372e-15 1.8533797896759778 13.577493326095627 -1.0339621486506925 -9.191126954574814e-08 1.3975157687737048e-07 13.197070234935149 8.253050574453457 0.36314573247266524 176.90643397301955 103.80343079662907 -19.964346459283284 179.17571202124955 1.2874780157183751e-06 8.196380365522387e-07 40.59842584862787 -3.1805546814635168e-15 -1.5902773407317584e-15 1.5902773407317584e-15 -115.63011876759735 -15.562229203058317 167.7579248523866 1.0317619861043127e-06 -7.99667354290383e-07 -45.76672188766712 0.0 0.0 3.1805546814635164e-15
0.0003559055912774056 86.07157897949219 -0.0012925425544381142 10.516300945435102 0.729485782114616 61.43083796583061 12.81082501580746 14.917490079285455 -4.020536285903947 -5.414335349322309 11.961399816044974 -1.9480443603399866 4.969616689786745e-16 1.3254650260258046e-32 3.056314264218848e-15 6.85194533269807 -4.7410952425979875 0.7825352155756338 1.9107994462664297 12.638335615905874 -2.4869458016215287 1.5902773407317588e-15 -7.951386703658794e-16 1.8884543421189634e-15 1.1290921546445447 13.20233910131301 -0.8239239046571499 -1.9314492408852376e-08 -1.295653077001341e-07 13.01967127657723 7.500535642344605 -0.9500424638587439 177.54502072277654 105.23713994517081 -25.76345526017827 178.6540106397846 -1.3411105930438163e-06 -2.860568734788497e-06 46.68718028325821 7.156248033292912e-15 9.931289170612858e-32 1.5902773407317582e-15 -117.51772748246283 -14.364121876714801 168.52914781845826 -2.8316908161171515e-06 -6.853708326772468e-06 -47.0809681797736 -3.1805546814635168e-15 -6.3611093629270335e-15 3.1805546814635168e-15
0.0003753579221665859 86.07146453857422 -0.0012670760042965412 11.111253758286663 0.6218788146454794 58.46487559475717 12.244219528960711 15.187989019398275 -4.0518313467091565 -5.632496577550761 14.627967774321137 -2.2767196642328624 -5.42775322837646e-16 3.1801664301596264e-15 2.0218186650050365e-15 6.352016325617753 -3.2108056121537754 0.5266728445225765 1.0775870034689667 13.057188017904206 -2.3589541644614647 -1.7241821476758433e-32 7.951386703658792e-16 2.4848083448933726e-15 0.5900839491404254 13.69404306944998 -0.8265584420163362 1.0155110566116788e-06 -2.6469129039166554e-07 13.519765271530682 8.674174658421785 0.654316841590156 177.41762452527527 104.12198975174702 -23.633447760399317 177.28797492127592 3.85437945401636e-06 -2.698730333066423e-06 40.80189827792015 1.5902773407317584e-15 6.3611093629270335e-15 1.5902773407317584e-15 -115.1642453502477 -15.445922993765128 168.90936865039143 -1.6219234698461732e-06 8.072947274457006e-08 -46.611741282686154 0.0 0.0 3.1805546814635168e-15
0.00030069792410358787 86.07164764404297 -0.0013536850456148386 11.970968494527403 0.900320275076375 66.60851771668825 13.839209493991966 13.85578786342028 -3.5954550393463807 -3.4997289974490906 17.449394537510372 -3.258777265735245 -1.9878466759146985e-16 -3.1805546814635168e-15 -1.888454342118963e-15 6.002057760378865 -2.4670574899058946 0.30198495521137303 1.7416633715144516 13.54000821209131 -2.0366408145782766 -1.5902773407317584e-15 7.951386703658791e-16 7.255640367088647e-15 1.7603095778982785 13.149260675505278 -0.5997618018542243 -5.635024158125631e-08 -4.890298492122975e-07 11.293362254474385 7.667661599088345 1.6739090827391454 175.0219916493287 107.01378255736817 -38.93972704211075 179.61258124568306 -8.994268399209905e-07 3.340834735184662e-07 55.38127694779937 3.975693351829395e-15 -6.460501696722767e-15 -4.174478019420865e-15 -114.42492190859765 -15.314244521806367 169.9157595666184 2.141413652980803e-06 -2.696327184000135e-07 -42.516738500480045 0.0 0.0 3.1805546814635168e-15
0.00033154242555610836 86.07156372070312 -0.001290823332965374 11.327404214990533 -1.1160137993446806 65.21625827386588 15.11033160194844 12.172732520291436 -3.243871626962747 -3.570506862109029 20.842003525634613 -3.9975182557608506 1.3914926731402886e-15 -4.969616689786739e-17 4.8453762725420764e-15 7.420304470699412 -1.7997262073498776 0.2367950298344839 1.5408447567332744 15.08566097219646 -2.3400672405116434 1.590277340731758e-15 9.24161631154252e-32 6.659286364314237e-15 2.3602211740519996 13.535729639578735 -0.53921236304304 3.569282347230602e-07 4.5985162480400044e-07 10.87000582378627 9.623824710048197 1.0786196859479498 174.94295340428118 104.9627799858855 -29.586353459185347 177.42115838998308 -1.5999328728329846e-06 1.5746095817196378e-06 37.559063575360746 1.5902773407317584e-15 1.5902773407317584e-15 -1.5902773407317584e-15 -112.74663803742274 -17.79189964138187 170.79497524364703 -4.502114060676223e-06 -1.1531607092510327e-06 -45.18955422745906 -1.7655625192200634e-31 6.361109362927035e-15 3.1805546814635176e-15
0.00023986908490769565 86.0714340209961 -0.0012208339758217335 10.643253392292653 0.10666911909736296 64.21196653856524 15.289735375322117 8.604587715370817 -2.3946488469196985 -4.9506081519146985 24.939220916809667 -4.454555679637608 -7.951386703658794e-16 -3.1805546814635164e-15 -8.299259871943863e-15 7.928856187454927 -2.445365745028679 0.35870303442624585 0.25259521289488057 16.804138479594236 -2.4825145275633007 -7.951386703658791e-16 -1.5902773407317582e-15 -4.969616689786744e-16 0.866494134395506 12.229256874959228 -0.2539153508001467 5.199670117867932e-07 5.3490530269842444e-08 11.044606591112828 9.26880924494536 1.2548362274285796 176.6686733784365 104.7590923322362 -34.207899201650804 177.08636040361012 -1.7990969784765184e-06 -1.9384326877654273e-06 41.79761469378476 7.951386703658792e-16 3.310429723537619e-32 4.770832022195275e-15 -114.63166690473017 -26.879076331191264 170.2944903543057 -3.4098902542237604e-06 -5.336847660293485e-07 -43.688476286602295 3.531125038440127e-31 6.3611093629270335e-15 -6.3611093629270335e-15
0.00022163453104440123 86.07144165039062 -0.0011831751326099038 10.63424805642992 -0.03418115850533481 58.801105458517526 15.390884262141046 7.119754058670351 -2.0948147536238713 -7.070934258047247 27.70476958819522 -4.318654860994922 1.1927080055488192e-15 2.6897241503743153e-32 2.584200678689108e-15 5.218926188957823 -0.481298441587279 0.05503114650416942 0.1568474839422834 17.513706350801648 -1.9500877849423899 7.951386703658792e-16 3.975693351829397e-16 6.957463365701443e-15 1.406013448908277 12.52652767239047 -0.5347686920136429 -2.8344093292014115e-07 -6.222403116188092e-07 11.609215450804811 9.64417985467182 0.9770272041744731 -179.7637982216232 102.79738779484106 -31.772667532756312 178.98791717946762 1.6996652402514556e-06 -4.373976441071318e-06 33.31899686781111 1.590277340731758e-15 0.0 0.0 -115.15286078765413 -21.14677824572476 173.6403362868518 3.5871504547113025e-06 4.9375650606030805e-06 -37.40619337923796 -6.361109362927033e-15 -6.361109362927033e-15 -3.1805546814635168e-15
